<svg width="18" height="20" viewBox="0 0 18 20" fill="none" xmlns="http://www.w3.org/2000/svg">
<path d="M0.420727 5.21488C-0.516158 6.75667 0.332818 7.69635 0.83652 7.93568C3.06536 8.5781 2.87647 6.80201 4.31202 5.06372C5.06758 4.24496 6.46535 3.17427 8.99645 3.0987C11.1517 3.03434 12.6105 4.119 13.0764 4.49689C12.9631 4.52208 12.4342 4.49689 11.9431 4.72362C11.2178 5.14686 11.6409 5.70613 11.9431 5.93287L16.7786 8.12463C17.232 8.27578 17.7231 7.93568 17.7231 7.48221V2.45628C17.7835 1.85166 17.4586 1.51156 17.1564 1.51156C16.4009 1.51156 16.2875 2.15397 15.7964 2.83417C14.9023 1.88945 12.2907 0 8.99645 0C4.31202 0 1.59183 3.28764 0.420727 5.21488Z" fill="#B1DFF7"/>
<path d="M17.579 14.1696C18.5159 12.6279 17.6669 11.6882 17.1632 11.4488C14.9344 10.8064 15.1233 12.5825 13.6877 14.3208C12.9322 15.1396 11.5344 16.2102 9.00331 16.2858C6.8481 16.3502 5.38925 15.2655 4.92333 14.8876C5.03666 14.8624 5.56555 14.8876 6.05665 14.6609C6.78199 14.2377 6.35888 13.6784 6.05665 13.4517L1.22112 11.2599C0.76779 11.1087 0.27668 11.4488 0.27668 11.9023V16.9282C0.216236 17.5329 0.541124 17.873 0.843346 17.873C1.5989 17.873 1.71223 17.2306 2.20334 16.5503C3.09741 17.4951 5.7091 19.3845 9.00331 19.3845C13.6877 19.3845 16.4079 16.0969 17.579 14.1696Z" fill="#B1DFF7"/>
</svg>
