<svg width="162" height="90" viewBox="0 0 162 90" fill="none" xmlns="http://www.w3.org/2000/svg">
<path d="M8.32 79.9661V87.0221L2.64 79.9661H1.68V89.0061H2.832V81.9501L8.512 89.0061H9.472V79.9661H8.32ZM16.7723 89.1021C19.5563 89.1021 21.6203 87.1341 21.6203 84.4781C21.6203 81.8381 19.5563 79.8541 16.7723 79.8541C14.0043 79.8541 11.9243 81.8381 11.9243 84.4781C11.9243 87.1341 14.0043 89.1021 16.7723 89.1021ZM16.7723 88.1101C14.6603 88.1101 13.0763 86.5741 13.0763 84.4941C13.0763 82.3981 14.6603 80.8621 16.7723 80.8621C18.8843 80.8621 20.4683 82.3981 20.4683 84.4941C20.4683 86.5741 18.8843 88.1101 16.7723 88.1101ZM28.2581 89.0061H32.0501C35.0901 89.0061 36.9941 87.1821 36.9941 84.4781C36.9941 81.7901 35.0901 79.9661 32.0501 79.9661H28.2581V89.0061ZM29.4101 88.0461V80.9261H32.0021C34.4341 80.9261 35.8421 82.3501 35.8421 84.4781C35.8421 86.6221 34.4341 88.0461 32.0021 88.0461H29.4101ZM45.9774 89.0061H47.1294L42.9534 79.9661H41.8174L37.6414 89.0061H38.7934L39.8494 86.6701H44.9214L45.9774 89.0061ZM40.2654 85.7421L42.3934 81.0541L44.5054 85.7421H40.2654ZM49.8574 89.0061H51.0094V80.9261H54.1934V79.9661H46.6734V80.9261H49.8574V89.0061ZM62.0555 89.0061H63.2075L59.0315 79.9661H57.8955L53.7195 89.0061H54.8715L55.9275 86.6701H60.9995L62.0555 89.0061ZM56.3435 85.7421L58.4715 81.0541L60.5835 85.7421H56.3435ZM70.6855 89.0061H71.8375V80.9261H75.0215V79.9661H67.5015V80.9261H70.6855V89.0061ZM80.5379 89.1021C83.3219 89.1021 85.3859 87.1341 85.3859 84.4781C85.3859 81.8381 83.3219 79.8541 80.5379 79.8541C77.7699 79.8541 75.6899 81.8381 75.6899 84.4781C75.6899 87.1341 77.7699 89.1021 80.5379 89.1021ZM80.5379 88.1101C78.4259 88.1101 76.8419 86.5741 76.8419 84.4941C76.8419 82.3981 78.4259 80.8621 80.5379 80.8621C82.6499 80.8621 84.2339 82.3981 84.2339 84.4941C84.2339 86.5741 82.6499 88.1101 80.5379 88.1101ZM92.0238 89.0061H95.8158C98.8558 89.0061 100.76 87.1821 100.76 84.4781C100.76 81.7901 98.8558 79.9661 95.8158 79.9661H92.0238V89.0061ZM93.1758 88.0461V80.9261H95.7678C98.1998 80.9261 99.6078 82.3501 99.6078 84.4781C99.6078 86.6221 98.1998 88.0461 95.7678 88.0461H93.1758ZM103.211 89.0061H104.363V79.9661H103.211V89.0061ZM110.223 89.1021C112.479 89.1021 113.727 88.0461 113.727 86.5421C113.727 83.2301 108.143 84.7341 108.143 82.3661C108.143 81.5181 108.831 80.8461 110.431 80.8461C111.279 80.8461 112.191 81.0381 112.959 81.5821L113.375 80.6541C112.623 80.1261 111.519 79.8541 110.463 79.8541C108.223 79.8541 107.007 80.9421 107.007 82.4141C107.007 85.8061 112.575 84.2541 112.575 86.6381C112.575 87.4541 111.919 88.1261 110.255 88.1261C109.039 88.1261 107.887 87.6781 107.215 87.0701L106.735 87.9661C107.455 88.6381 108.831 89.1021 110.223 89.1021ZM119.622 79.9661H116.102V89.0061H117.254V86.2061H119.622C121.942 86.2061 123.398 85.0541 123.398 83.0861C123.398 81.1021 121.942 79.9661 119.622 79.9661ZM119.558 85.2461H117.254V80.9261H119.558C121.302 80.9261 122.246 81.6941 122.246 83.0861C122.246 84.4621 121.302 85.2461 119.558 85.2461ZM125.977 89.0061H132.169V88.0461H127.129V79.9661H125.977V89.0061ZM140.696 89.0061H141.848L137.672 79.9661H136.536L132.36 89.0061H133.512L134.568 86.6701H139.64L140.696 89.0061ZM134.984 85.7421L137.112 81.0541L139.224 85.7421H134.984ZM149.986 79.9661H148.802L145.698 84.9581L142.594 79.9661H141.362L145.106 86.0301V89.0061H146.242V86.0621L149.986 79.9661Z" fill="#C4C4C4"/>
<path d="M56.0464 35.6815C55.5941 38.4331 49.827 43.707 47 46L68.7679 37.6913M56.0464 35.6815L55.7637 10.7452L76.6835 1M56.0464 35.6815L77.2489 27.656M76.6835 1L104.105 6.15924V30.8089M76.6835 1L77.2489 27.656M104.105 30.8089C105.519 32.4331 109.477 35.5669 114 35.1083L92.5148 43.9936C88.6512 43.9936 80.8675 42.7898 80.6413 37.9745M104.105 30.8089L80.6413 37.9745M104.105 30.8089L77.2489 27.656M80.6413 37.9745L68.7679 37.6913M77.2489 27.656C76.9662 29.6624 75.3266 34.3057 71.0295 36.828L68.7679 37.6913" stroke="#B1DFF7" stroke-linecap="round" stroke-linejoin="round"/>
<path d="M57 58.2146C60.2547 59.2037 67.5453 60.5884 70.6698 58.2146C74.5755 55.2473 69.3679 54.3343 67.1981 55.4755C65.0283 56.6168 61.5566 62.7797 80 60.4971" stroke="#B1DFF7" stroke-linecap="round" stroke-linejoin="round"/>
<path d="M80 71.2628C81.9755 72.5301 87.736 74.8473 89.6697 70.3579C90.4495 68.5474 85.4587 68.5474 86.3945 70.3579C87.0183 71.7459 89.6385 73.725 97 69.8144" stroke="#B1DFF7" stroke-linecap="round" stroke-linejoin="round"/>
<path d="M95 54.9869C96.5385 54.6936 100.046 53.2855 101.769 50M95 60.8538C96.641 61.245 100.538 61.0885 103 57.3337" stroke="#B1DFF7" stroke-linecap="round" stroke-linejoin="round"/>
</svg>
