<svg width="21" height="21" viewBox="0 0 21 21" fill="none" xmlns="http://www.w3.org/2000/svg">
<rect width="21" height="21" rx="10" fill="#B1DFF7" fill-opacity="0.15"/>
<path d="M9.40356 12.288C9.40356 11.712 9.53156 11.2373 9.78756 10.864C10.0542 10.48 10.4382 10.064 10.9396 9.616C11.3236 9.27467 11.6062 8.98133 11.7876 8.736C11.9796 8.48 12.0756 8.192 12.0756 7.872C12.0756 7.424 11.8942 7.06133 11.5316 6.784C11.1689 6.50667 10.6836 6.368 10.0756 6.368C8.92356 6.368 8.05423 6.77867 7.46756 7.6L5.91556 6.592C6.37423 5.96267 6.96623 5.48267 7.69156 5.152C8.4169 4.81067 9.27023 4.64 10.2516 4.64C11.4462 4.64 12.3956 4.90133 13.0996 5.424C13.8142 5.936 14.1716 6.64533 14.1716 7.552C14.1716 7.98933 14.0969 8.37333 13.9476 8.704C13.8089 9.03467 13.6382 9.31733 13.4356 9.552C13.2329 9.776 12.9662 10.0373 12.6356 10.336C12.2302 10.6987 11.9262 11.0187 11.7236 11.296C11.5316 11.5733 11.4356 11.904 11.4356 12.288H9.40356ZM10.4276 16.112C10.0542 16.112 9.7449 15.9947 9.49956 15.76C9.2649 15.5147 9.14756 15.216 9.14756 14.864C9.14756 14.512 9.2649 14.2187 9.49956 13.984C9.7449 13.7493 10.0542 13.632 10.4276 13.632C10.7902 13.632 11.0889 13.7493 11.3236 13.984C11.5689 14.2187 11.6916 14.512 11.6916 14.864C11.6916 15.216 11.5689 15.5147 11.3236 15.76C11.0889 15.9947 10.7902 16.112 10.4276 16.112Z" fill="#B1DFF7"/>
</svg>
